<svg xmlns="http://www.w3.org/2000/svg" width="42.125" height="42.25" viewBox="0 0 42.125 42.25">
  <defs>
    <style>
      .cls-1 {
        fill: #0058db;
        fill-rule: evenodd;
      }
    </style>
  </defs>
  <path id="icon_tel.svg" class="cls-1" d="M157.5,9917.01a2.027,2.027,0,0,1,.739.13h0.4v0.06h0.336v0.08h0.336v0.06h0.335v0.07h0.269v0.06c0.179,0.03.358,0.05,0.537,0.07v0.07c0.156,0.02.313,0.05,0.469,0.07v0.06h0.2v0.07h0.268v0.07h0.2v0.07h0.2v0.07H162v0.06h0.2v0.07h0.2v0.07h0.135v0.07l0.4,0.06v0.07h0.134v0.07h0.2v0.06a2.645,2.645,0,0,0,.268.07v0.07h0.2v0.06h0.134v0.07c0.112,0.03.223,0.05,0.335,0.07v0.07c0.135,0.04.269,0.09,0.4,0.13v0.07h0.134v0.07h0.135v0.07h0.134v0.06h0.134v0.07h0.134v0.06h0.135v0.07h0.134v0.07h0.134c0.023,0.05.045,0.09,0.067,0.13,0.134,0.05.269,0.09,0.4,0.14,0.022,0.04.045,0.09,0.067,0.14,0.134,0.04.269,0.08,0.4,0.13v0.07l0.2,0.06c0.023,0.05.045,0.09,0.067,0.14a2.663,2.663,0,0,1,.269.07c0.022,0.04.045,0.09,0.067,0.13h0.134v0.07c0.067,0.02.134,0.05,0.2,0.07,0.022,0.04.044,0.09,0.067,0.13h0.134c0.022,0.04.045,0.09,0.067,0.14h0.134c0.045,0.06.09,0.13,0.135,0.2h0.134c0.044,0.06.089,0.13,0.134,0.2h0.134c0.045,0.07.09,0.13,0.134,0.2h0.135c0.045,0.07.089,0.14,0.134,0.2h0.134l0.2,0.27h0.134c0.089,0.12.179,0.23,0.268,0.34h0.134c0.112,0.13.224,0.27,0.336,0.4h0.135c0.38,0.41.76,0.81,1.141,1.22,0.246,0.22.492,0.45,0.738,0.67v0.13c0.134,0.11.268,0.23,0.4,0.34v0.14c0.112,0.08.223,0.18,0.335,0.26v0.14c0.09,0.07.179,0.13,0.269,0.2v0.14c0.089,0.06.179,0.13,0.268,0.2v0.13a2.15,2.15,0,0,0,.2.13v0.14c0.044,0.02.089,0.05,0.134,0.07v0.13c0.067,0.05.134,0.09,0.2,0.14v0.13a0.908,0.908,0,0,0,.134.07v0.14l0.135,0.06v0.13c0.044,0.03.089,0.05,0.134,0.08v0.13c0.045,0.02.089,0.05,0.134,0.07v0.13c0.045,0.03.09,0.04,0.134,0.07,0.023,0.09.045,0.18,0.067,0.27a0.87,0.87,0,0,1,.135.07c0.022,0.08.044,0.18,0.067,0.27l0.134,0.06c0.045,0.14.09,0.27,0.134,0.41l0.135,0.06c0.156,0.37.313,0.72,0.469,1.08h0.068v0.14h0.067v0.13h0.067v0.14h0.067c0.045,0.13.089,0.27,0.134,0.4h0.067v0.2h0.067c0.023,0.09.045,0.18,0.067,0.27h0.068v0.2H176.5v0.14h0.067v0.2h0.067v0.14H176.7c0.022,0.13.045,0.26,0.067,0.4h0.067v0.13H176.9v0.2h0.068v0.21h0.067v0.2H177.1v0.2h0.067v0.27h0.067v0.2H177.3v0.2h0.067c0.023,0.18.045,0.36,0.068,0.54a9.073,9.073,0,0,1,.469,2.03h-0.067v0.06a2.248,2.248,0,0,0-.738.14h-0.4v0.07h-0.4v0.06h-0.4v0.07h-0.4c-0.22.06-.589,0.12-0.806,0.2a6.309,6.309,0,0,0-.335-1.48v-0.27H174.28v-0.27h-0.067v-0.2h-0.067v-0.27h-0.068v-0.2h-0.067v-0.21h-0.067v-0.2h-0.067v-0.2H173.81c-0.022-.14-0.045-0.27-0.067-0.4h-0.067v-0.14h-0.067c-0.023-.13-0.045-0.27-0.068-0.4h-0.067c-0.022-.09-0.045-0.18-0.067-0.27H173.34v-0.2h-0.067c-0.022-.09-0.045-0.18-0.067-0.27h-0.067v-0.2h-0.068c-0.044-.14-0.089-0.27-0.134-0.41H172.87v-0.13H172.8v-0.14h-0.067v-0.13h-0.067v-0.14H172.6v-0.13h-0.067v-0.14h-0.068v-0.13c-0.044-.02-0.089-0.05-0.134-0.07-0.045-.13-0.089-0.27-0.134-0.4a0.908,0.908,0,0,0-.134-0.07c-0.023-.09-0.045-0.18-0.067-0.27a0.87,0.87,0,0,0-.135-0.07c-0.022-.09-0.044-0.18-0.067-0.27l-0.134-.06v-0.14H171.6c-0.023-.07-0.045-0.13-0.067-0.2a0.908,0.908,0,0,0-.134-0.07v-0.13a0.87,0.87,0,0,0-.135-0.07v-0.14l-0.134-.06c-0.022-.07-0.045-0.14-0.067-0.2-0.067-.05-0.134-0.09-0.2-0.14v-0.13a0.87,0.87,0,0,0-.135-0.07c-0.022-.07-0.045-0.14-0.067-0.2l-0.268-.21v-0.13a2.288,2.288,0,0,0-.2-0.13c-0.022-.08-0.044-0.14-0.067-0.21-0.156-.13-0.313-0.27-0.47-0.4v-0.14c-0.246-.22-0.492-0.45-0.738-0.67l-0.738-.81h-0.135c-0.134-.15-0.268-0.31-0.4-0.47H167.5c-0.089-.11-0.179-0.22-0.268-0.34H167.1c-0.045-.06-0.09-0.13-0.134-0.2h-0.135c-0.045-.07-0.089-0.13-0.134-0.2h-0.134c-0.045-.07-0.09-0.13-0.134-0.2a1.672,1.672,0,0,0-.2-0.07c-0.022-.04-0.045-0.09-0.067-0.13h-0.134c-0.023-.05-0.045-0.1-0.067-0.14h-0.135c-0.022-.04-0.044-0.09-0.067-0.13h-0.134c-0.022-.05-0.045-0.09-0.067-0.14H165.42c-0.023-.04-0.045-0.09-0.068-0.13a2.578,2.578,0,0,0-.268-0.07c-0.022-.05-0.045-0.09-0.067-0.13h-0.134c-0.023-.05-0.045-0.09-0.067-0.14-0.135-.05-0.269-0.09-0.4-0.13-0.023-.05-0.045-0.09-0.067-0.14-0.135-.04-0.269-0.09-0.4-0.14v-0.06a2.578,2.578,0,0,1-.268-0.07v-0.07H163.54v-0.06h-0.134v-0.07h-0.134v-0.07h-0.135v-0.07H163v-0.06c-0.2-.07-0.4-0.14-0.6-0.2v-0.07h-0.134v-0.07h-0.2v-0.07h-0.135v-0.06h-0.2v-0.07h-0.134v-0.07l-2.618-.81H158.64c-0.306-.09-0.758-0.17-1.074-0.27h-0.4v-0.06H157.1v-0.34a3.189,3.189,0,0,0,.134-0.94A7.984,7.984,0,0,0,157.5,9917.01Zm-15.1,4.04c2.026-.02,2.7,1.09,3.692,2.08,1.275,1.28,2.584,2.53,3.826,3.84a0.908,0.908,0,0,1,.134.07v0.13h0.067l0.134,0.21a2.276,2.276,0,0,1,.2.13v0.14l0.135,0.06v0.14l0.134,0.06v0.14h0.067v0.13h0.067c0.023,0.14.045,0.27,0.067,0.41h0.067v0.2h0.068v1.08c-0.438,1.45-1.539,2.21-2.484,3.16l-1.879,1.95a2.3,2.3,0,0,0,.469,1.35v0.14h0.068v0.13H147.3v0.14h0.067v0.13h0.067v0.14H147.5v0.13a0.818,0.818,0,0,1,.134.07c0.023,0.09.045,0.18,0.067,0.27a0.87,0.87,0,0,1,.135.07c0.022,0.09.045,0.17,0.067,0.27h0.067c0.022,0.06.045,0.13,0.067,0.2l0.134,0.06v0.14h0.067c0.023,0.06.045,0.13,0.068,0.2,0.044,0.02.089,0.05,0.134,0.07v0.13c0.067,0.05.134,0.09,0.2,0.14v0.13c0.045,0.02.09,0.05,0.135,0.07v0.14a2.276,2.276,0,0,1,.2.13v0.14a2.276,2.276,0,0,1,.2.13v0.13l0.269,0.21v0.13l0.335,0.27v0.14c0.112,0.08.224,0.17,0.336,0.26v0.14c0.134,0.11.268,0.22,0.4,0.34v0.13l0.6,0.54v0.13c0.268,0.25.537,0.5,0.805,0.74a13.185,13.185,0,0,0,1.544,1.49c0.134,0.15.268,0.31,0.4,0.46h0.134v0.07c0.067,0.05.134,0.09,0.2,0.14,0.045,0.07.09,0.13,0.135,0.2h0.134l0.2,0.27h0.134a1.537,1.537,0,0,1,.067.14h0.068c0.022,0.04.044,0.08,0.067,0.13h0.134c0.045,0.06.09,0.14,0.134,0.2h0.134c0.045,0.07.09,0.13,0.135,0.2h0.134c0.045,0.07.089,0.14,0.134,0.2,0.067,0.02.135,0.05,0.2,0.07,0.023,0.05.045,0.09,0.068,0.14h0.134c0.022,0.04.045,0.09,0.067,0.13h0.134c0.023,0.05.045,0.09,0.068,0.13h0.134a1.537,1.537,0,0,0,.067.14h0.134c0.022,0.05.045,0.09,0.067,0.13h0.134c0.023,0.05.045,0.09,0.068,0.14h0.134c0.022,0.05.044,0.09,0.067,0.14l0.268,0.06c0.023,0.05.045,0.1,0.068,0.14h0.134v0.06H157.9v0.07h0.134v0.07h0.134v0.07h0.135v0.07h0.134v0.06h0.134v0.07c0.134,0.05.269,0.09,0.4,0.13v0.07h0.134v0.07h0.134v0.07a1.468,1.468,0,0,0,.739.13l1.946-1.89c0.945-.95,1.7-2.05,3.155-2.49a3.763,3.763,0,0,1,1.812.27c0.023,0.05.045,0.09,0.068,0.14l0.268,0.06c0.022,0.05.045,0.09,0.067,0.14h0.134c0.224,0.25.448,0.49,0.672,0.74l1.476,1.41c0.224,0.25.448,0.5,0.672,0.74a16.308,16.308,0,0,1,1.61,1.62,6.5,6.5,0,0,1,1.947,2.43v0.33a2.307,2.307,0,0,1-.269,1.69v0.13c-0.044.02-.089,0.05-0.134,0.07-0.022.09-.045,0.18-0.067,0.27-0.089.06-.179,0.13-0.269,0.2a13.55,13.55,0,0,1-1.61,1.68c-1.176,1.18-2.158,2.55-3.893,3.17a10.075,10.075,0,0,1-4.766-.14l-0.6-.06c-0.568-.2-1.209-0.4-1.745-0.61-0.2-.05-0.4-0.09-0.6-0.13v-0.07h-0.135v-0.07h-0.2v-0.07h-0.134v-0.06h-0.2v-0.07c-0.089-.02-0.179-0.05-0.268-0.07v-0.07h-0.2v-0.06c-0.134-.05-0.268-0.09-0.4-0.14v-0.07l-0.336-.06v-0.07c-0.134-.05-0.268-0.09-0.4-0.13v-0.07h-0.134v-0.07H157.3v-0.06h-0.134v-0.07h-0.135v-0.07H156.9v-0.07h-0.134v-0.07h-0.134v-0.06h-0.134v-0.07h-0.135v-0.07h-0.134v-0.07H156.09c-0.023-.04-0.045-0.09-0.068-0.13h-0.134v-0.06h-0.134v-0.07H155.62V9956h-0.134v-0.07h-0.135a1.3,1.3,0,0,0-.067-0.13c-0.134-.05-0.268-0.1-0.4-0.14-0.022-.04-0.044-0.09-0.067-0.13a2.645,2.645,0,0,0-.268-0.07,1.537,1.537,0,0,1-.067-0.14l-0.269-.06c-0.022-.05-0.044-0.09-0.067-0.14a2.645,2.645,0,0,1-.268-0.07,1.3,1.3,0,0,1-.067-0.13h-0.135v-0.07h-0.134c-0.022-.04-0.045-0.09-0.067-0.13h-0.134c-0.023-.05-0.045-0.09-0.067-0.14h-0.135c-0.022-.04-0.044-0.09-0.067-0.13h-0.134c-0.022-.04-0.045-0.09-0.067-0.14l-0.269-.06c-0.022-.05-0.044-0.09-0.067-0.14H152.4c-0.045-.07-0.089-0.13-0.134-0.2h-0.135v-0.07l-0.2-.06c-0.022-.05-0.045-0.09-0.067-0.14h-0.134c-0.045-.07-0.09-0.13-0.135-0.2h-0.134c-0.022-.05-0.044-0.09-0.067-0.14h-0.134c-0.023-.04-0.045-0.09-0.067-0.13-0.067-.02-0.134-0.05-0.2-0.07-0.044-.07-0.089-0.13-0.134-0.2H150.72c-0.045-.07-0.09-0.13-0.134-0.2h-0.135c-0.044-.07-0.089-0.14-0.134-0.2h-0.134c-0.045-.07-0.09-0.14-0.134-0.21h-0.134l-0.2-.27h-0.134l-0.269-.33h-0.134c-0.089-.11-0.179-0.23-0.268-0.34h-0.134c-0.112-.14-0.224-0.27-0.336-0.4H148.3c-0.112-.14-0.224-0.27-0.336-0.41H147.9c-0.022-.04-0.045-0.09-0.067-0.13H147.7c-0.044-.07-0.089-0.14-0.134-0.2-0.134-.12-0.268-0.23-0.4-0.34-0.178-.2-0.358-0.4-0.536-0.61h-0.135c-0.022-.04-0.044-0.09-0.067-0.13-0.156-.14-0.313-0.27-0.47-0.4v-0.14h-0.067c-0.045-.07-0.089-0.13-0.134-0.2-0.313-.3-0.627-0.59-0.94-0.88-0.022-.07-0.045-0.13-0.067-0.2-0.156-.13-0.313-0.27-0.47-0.41v-0.13c-0.134-.11-0.268-0.22-0.4-0.34v-0.13l-0.336-.27v-0.14a3.974,3.974,0,0,1-.336-0.27v-0.13c-0.089-.06-0.179-0.13-0.268-0.2v-0.13l-0.269-.21v-0.13c-0.044-.02-0.089-0.05-0.134-0.07-0.022-.07-0.045-0.14-0.067-0.2-0.09-.07-0.179-0.14-0.268-0.2v-0.14c-0.068-.04-0.135-0.09-0.2-0.13v-0.14a2.276,2.276,0,0,0-.2-0.13v-0.14a0.87,0.87,0,0,1-.135-0.07v-0.13c-0.067-.04-0.134-0.09-0.2-0.13v-0.14l-0.134-.06V9943c-0.067-.04-0.134-0.09-0.2-0.13v-0.14a0.908,0.908,0,0,1-.134-0.07c-0.022-.07-0.044-0.13-0.067-0.2h-0.067v-0.13c-0.045-.03-0.09-0.04-0.134-0.07v-0.13a0.908,0.908,0,0,0-.134-0.07v-0.14c-0.045-.02-0.09-0.05-0.135-0.07v-0.13a0.908,0.908,0,0,1-.134-0.07v-0.13c-0.045-.02-0.09-0.05-0.134-0.07-0.023-.09-0.045-0.18-0.067-0.27a0.8,0.8,0,0,0-.135-0.06c-0.022-.1-0.044-0.18-0.067-0.28l-0.134-.06c-0.022-.09-0.045-0.18-0.067-0.27a0.908,0.908,0,0,0-.134-0.07c-0.023-.09-0.045-0.18-0.067-0.27l-0.135-.06c-0.044-.14-0.089-0.27-0.134-0.41a0.861,0.861,0,0,1-.134-0.07v-0.13h-0.067v-0.13h-0.067v-0.14h-0.067v-0.13h-0.068v-0.14c-0.044-.02-0.089-0.05-0.134-0.07-0.045-.13-0.089-0.27-0.134-0.4H138.5v-0.14h-0.067v-0.13h-0.068v-0.14H138.3v-0.13h-0.068c-0.044-.13-0.089-0.27-0.134-0.4h-0.067c-0.022-.12-0.045-0.23-0.067-0.34H137.9c-0.045-.13-0.09-0.27-0.135-0.4H137.7v-0.21h-0.067c-0.022-.09-0.045-0.18-0.067-0.27H137.5v-0.2H137.43c-0.022-.09-0.045-0.18-0.067-0.27H137.3c-0.023-.13-0.045-0.27-0.068-0.4h-0.067v-0.14h-0.067v-0.2h-0.067v-0.14H136.96c-0.022-.13-0.045-0.26-0.067-0.4h-0.067v-0.13h-0.067c-0.023-.14-0.045-0.27-0.068-0.41h-0.067v-0.2h-0.067v-0.2H136.49c-0.022-.16-0.045-0.31-0.067-0.47h-0.067c-0.023-.16-0.045-0.32-0.067-0.47h-0.067v-0.27h-0.067v-0.34c-0.1-.33-0.171-0.8-0.269-1.14v-0.61a6.212,6.212,0,0,1,.269-3.1v-0.2h0.067c0.022-.09.044-0.18,0.067-0.27h0.067v-0.21a0.789,0.789,0,0,0,.134-0.06c0.045-.13.09-0.27,0.134-0.4a0.87,0.87,0,0,1,.135-0.07c0.022-.07.044-0.14,0.067-0.2,0.067-.05.134-0.09,0.2-0.14v-0.13c0.246-.23.492-0.45,0.738-0.68,0.112-.13.224-0.27,0.336-0.4h0.134l0.2-.27,0.6-.54v-0.13c0.134-.12.268-0.23,0.4-0.34,0.38-.4.76-0.81,1.141-1.21h0.134c0.089-.11.179-0.23,0.268-0.34h0.134c0.023-.04.045-0.09,0.068-0.13a2.645,2.645,0,0,1,.268-0.07,1.537,1.537,0,0,0,.067-0.14h0.2v-0.06h0.134v-0.07A2.592,2.592,0,0,0,142.4,9921.05Zm14.7,4.37a13.592,13.592,0,0,1,5.168,1.82c0.089,0.03.179,0.04,0.269,0.07,0.022,0.04.044,0.09,0.066,0.13,0.09,0.02.18,0.05,0.269,0.07v0.06c0.067,0.03.134,0.05,0.2,0.08a1.3,1.3,0,0,1,.067.13h0.135c0.022,0.05.045,0.09,0.067,0.13h0.134c0.045,0.07.09,0.14,0.134,0.21h0.135c0.044,0.06.089,0.13,0.134,0.2h0.134l0.2,0.27h0.135c0.112,0.13.224,0.27,0.335,0.4h0.135c0.223,0.25.447,0.5,0.671,0.74,0.134,0.12.268,0.23,0.4,0.34v0.13c0.135,0.12.269,0.23,0.4,0.34v0.14c0.09,0.06.179,0.13,0.269,0.2v0.13c0.067,0.05.134,0.09,0.2,0.14v0.13c0.067,0.04.134,0.09,0.2,0.14v0.13c0.044,0.03.089,0.04,0.134,0.07,0.022,0.07.044,0.13,0.067,0.2h0.067v0.14l0.134,0.06c0.022,0.09.045,0.18,0.067,0.27a0.87,0.87,0,0,1,.135.07c0.022,0.09.044,0.18,0.067,0.27a0.908,0.908,0,0,1,.134.07v0.13h0.067v0.13H167.9v0.14h0.067v0.13h0.067v0.14h0.068v0.13h0.067c0.044,0.14.089,0.27,0.134,0.41h0.067c0.022,0.11.045,0.22,0.067,0.33h0.067v0.14h0.067v0.2h0.067v0.14h0.068v0.2h0.067v0.2h0.067v0.2h0.067v0.2h0.067v0.27a6.958,6.958,0,0,1,.4,1.62l-3.222.54a9.809,9.809,0,0,0-.671-2.22v-0.21H165.42c-0.023-.09-0.045-0.17-0.068-0.27h-0.067v-0.2h-0.067c-0.044-.13-0.089-0.27-0.134-0.4h-0.067c-0.023-.09-0.045-0.18-0.067-0.27-0.045-.02-0.09-0.05-0.134-0.07-0.023-.09-0.045-0.18-0.068-0.27a0.908,0.908,0,0,1-.134-0.07c-0.022-.08-0.044-0.18-0.067-0.26a0.861,0.861,0,0,0-.134-0.07v-0.14c-0.067-.04-0.134-0.09-0.2-0.13v-0.14l-0.134-.06v-0.14c-0.089-.07-0.179-0.13-0.268-0.2v-0.13c-0.134-.11-0.269-0.23-0.4-0.34v-0.13l-0.537-.48c-0.045-.06-0.089-0.13-0.134-0.2H162.6c-0.134-.16-0.268-0.31-0.4-0.47h-0.134c-0.045-.07-0.09-0.13-0.135-0.2h-0.134c-0.045-.07-0.089-0.14-0.134-0.2h-0.134c-0.023-.05-0.045-0.09-0.068-0.14a1.6,1.6,0,0,1-.2-0.07v-0.06h-0.134c-0.023-.05-0.045-0.09-0.067-0.14a1.614,1.614,0,0,1-.2-0.07v-0.06h-0.134v-0.07h-0.134V9930h-0.134v-0.07h-0.135v-0.06h-0.134c-0.022-.05-0.044-0.09-0.067-0.14h-0.2v-0.06h-0.135v-0.07a2.645,2.645,0,0,1-.268-0.07v-0.07h-0.2v-0.06h-0.135v-0.07h-0.2v-0.07h-0.134v-0.07h-0.2v-0.06h-0.268a5.906,5.906,0,0,0-1.678-.41C156.681,9927.55,157.054,9926.55,157.1,9925.42Z" transform="translate(-135.781 -9917)"/>
</svg>
